<?xml version="1.0" encoding="utf-8"?>
<!-- Generator: Adobe Illustrator 21.0.2, SVG Export Plug-In . SVG Version: 6.00 Build 0)  -->
<svg version="1.1" id="레이어_1" xmlns="http://www.w3.org/2000/svg" xmlns:xlink="http://www.w3.org/1999/xlink" x="0px"
	 y="0px" viewBox="0 0 771.3 169.3" style="enable-background:new 0 0 771.3 169.3;" xml:space="preserve">
<style type="text/css">
	.st0{fill:#FFFFFF;}
	.st1{fill:#EF7622;}
</style>
<g>
	<g>
		<path class="st0" d="M536.8,21.8v-4.2l0,0v-4.8c0-1.3-0.4-2.4-1.3-3.3c-0.8-0.8-1.9-1.3-3.3-1.3c-1.3,0-2.4,0.4-3.2,1.3
			c-0.8,0.8-1.2,1.9-1.2,3.3v34.4c0,1.3,0.4,2.4,1.2,3.3c0.8,0.8,1.9,1.3,3.2,1.3s2.4-0.4,3.3-1.3c0.8-0.8,1.3-1.9,1.3-3.3V43l0,0
			v-4.2l0,0c0-4.3,3.3-4.2,3.3-4.2c1.9,0,3.1,0.5,5.2,2.8l11.5,13.2c1.6,1.8,4.8,1.4,6.4-0.5c1.6-1.9,1-4.6-0.7-6.4L551,30.4
			l11.4-10.5c2-1.6,2.3-4.5,0.7-6.4s-4.4-2.1-6.4-0.5l-12.6,11.5c-1.1,1-2.8,1.5-4.1,1.5C540.1,26,536.8,26.4,536.8,21.8z"/>
		<path class="st0" d="M607.7,41.2c0.8-0.7,1.9-1.3,3.2-1.3c2.5,0,4.5,2,4.5,4.5c0,1.3-0.6,2.5-1.5,3.3c-2.7,2.7-6.1,4.1-10.1,4.1
			c-5.2,0-9-1.7-11.6-4.3c-2.7-2.7-4.1-6.1-4.1-10.2V26.6h-2.8c-1.4,0-2.6-0.4-3.5-1.2c-0.9-0.8-1.3-1.9-1.3-3.2
			c0-3,1.6-4.5,4.8-4.5h2.8v-2.6c0-1.3,0.4-2.4,1.2-3.2s1.9-1.3,3.2-1.3s2.4,0.4,3.2,1.3c0.8,0.8,1.3,1.9,1.3,3.2v2.6h11.6
			c1.3,0,2.4,0.4,3.2,1.2c0.8,0.8,1.2,1.9,1.2,3.2c0,3-1.5,4.5-4.4,4.5H597v10.6c0,1.6,0.5,2.9,1.6,3.9
			C598.7,41.2,602.2,45,607.7,41.2z"/>
		<path class="st1" d="M577.9,2.3c1.5,1.5,2.3,3.4,2.3,5.5s-0.8,4-2.3,5.5s-3.4,2.3-5.5,2.3s-4-0.8-5.5-2.3s-2.3-3.4-2.3-5.5
			s0.8-4,2.3-5.5s3.4-2.3,5.5-2.3C574.5,0,576.4,0.8,577.9,2.3z"/>
		<path class="st0" d="M576.9,22c0-3-1.5-4.5-4.5-4.5c-1.3,0-2.4,0.4-3.2,1.2c-0.8,0.8-1.2,1.9-1.2,3.2v25.3c0,1.3,0.4,2.4,1.2,3.3
			c0.8,0.8,1.9,1.2,3.2,1.2s2.4-0.4,3.2-1.2s1.3-1.9,1.3-3.3V22z"/>
		<path class="st1" d="M769,2.3c1.5,1.5,2.3,3.4,2.3,5.5s-0.8,4-2.3,5.5s-3.4,2.3-5.5,2.3s-4-0.8-5.5-2.3s-2.3-3.4-2.3-5.5
			s0.8-4,2.3-5.5s3.4-2.3,5.5-2.3C765.6,0,767.4,0.8,769,2.3z"/>
		<path class="st0" d="M767.9,22c0-3-1.5-4.5-4.5-4.5c-1.3,0-2.4,0.4-3.2,1.2c-0.8,0.8-1.2,1.9-1.2,3.2v25.3c0,1.3,0.4,2.4,1.2,3.3
			c0.8,0.8,1.9,1.2,3.2,1.2s2.4-0.4,3.3-1.2c0.8-0.8,1.3-1.9,1.3-3.3L767.9,22L767.9,22z"/>
		<path class="st0" d="M689.9,40.5c-2.5-2.3-2.5-5.8-2.5-5.8c0-0.9,0.1-1.7,0.3-2.4c1-3.2,3.9-5.6,7.4-5.8c0.1,0,0.7,0,0.8,0
			c0.2,0,0.3,0,0.5,0c4.4,0.2,7.8,3.7,7.8,8.2c0,0.2,0,0.5,0,0.8v8l0,0c-0.2-0.6-0.8-1.9-2.5-2.3c-0.6-0.2-1.4-0.2-2.2,0.1
			c-0.9,0.3-2,0.9-2,0.9C694.4,43.3,691.5,42,689.9,40.5z M679.1,39.5c0.5,1.9,1.7,4.3,2.9,5.7c2.2,2.7,5.8,5.1,9.9,5.7
			c4.4,0.6,7.9-0.6,8.4-0.8c3-1.3,3.8-2.7,4-3.7v1.1l0,0c0,0.5,0.2,1.3,0.6,2l0,0c0.2,0.4,0.4,0.7,0.7,1c0.8,0.8,2,1.3,3.3,1.3
			c1.4,0,2.5-0.4,3.4-1.3c0.9-0.9,1.3-2,1.3-3.3V34.7c0-5-1.7-9.1-5.1-12.5c-3.4-3.4-7.6-5.1-12.5-5.1l0,0l0,0
			c-5,0-9.1,1.7-12.5,5.1c-2.8,2.8-4.4,6.1-4.9,9.9C678.5,33,678.3,36.4,679.1,39.5z"/>
		<path class="st0" d="M666.6,17.7c-4,0-7.4,1.3-10.2,4.1s-4.1,6.2-4.1,10.3v15.2c0,1.3,0.4,2.4,1.2,3.3c0.8,0.8,1.9,1.2,3.2,1.2
			s2.4-0.4,3.2-1.2s1.3-1.9,1.3-3.3V32.1c0-1.4,0.6-2.8,1.5-3.9c0.9-1,2.5-1.6,4.4-1.6h8.3c2.5,0,4.6-2,4.6-4.4
			c0-2.5-2.1-4.4-4.6-4.4L666.6,17.7L666.6,17.7z"/>
		<path class="st0" d="M649,39.1V21.8c0-1.2-0.4-2.3-1.2-3.1c-0.8-0.8-1.9-1.2-3.2-1.2s-2.4,0.4-3.2,1.2c-0.8,0.8-1.3,1.8-1.3,3.1
			V37c0,4.6-3.8,5.9-7.2,5.9c-3.1,0-7.2-1-7.2-5.9V21.8c0-1.2-0.4-2.3-1.3-3.1c-0.8-0.8-1.9-1.2-3.2-1.2s-2.4,0.4-3.2,1.2
			c-0.8,0.8-1.2,1.8-1.2,3.1v17.3c0,6.5,6.1,12.6,16.1,12.6C642.3,51.8,649,45.7,649,39.1z"/>
		<path class="st0" d="M743.5,17.4c-3.6,0-5.6,1.3-7.4,3.4c-1.8-2.1-3.8-3.4-7.4-3.4c-7.3,0-11.5,5.8-11.5,12.2v17.7
			c0,1.3,0.4,2.4,1.2,3.3c0.8,0.8,1.9,1.2,3.2,1.2s2.4-0.4,3.2-1.2s1.2-1.9,1.2-3.3V29.1c0-1.5,1.3-2.8,3-2.8c1.6,0,3,1.2,3,2.8
			v18.3c0,1.3,0.3,2.4,1.1,3.2s1.7,1.2,3,1.2c1.2,0,2.2-0.4,3-1.2s1.2-1.9,1.2-3.2V29l0,0c0.1-1.5,1.3-2.7,3-2.7s3,1.2,3,2.8v18.2
			c0,1.3,0.4,2.4,1.3,3.3c0.8,0.8,1.9,1.2,3.2,1.2s2.4-0.4,3.2-1.2s1.2-1.9,1.2-3.3V29.6C755,23.2,750.8,17.4,743.5,17.4z"/>
	</g>
	<g>
		<path class="st0" d="M185.3,124.7h-81.9c-1.8,0-4.8,1.7-4.8,6.7c0,4.9,3,6.8,4.8,6.8h33.1v25.2c0,2.2,1.9,6,7.8,6
			c5.7,0,7.9-3.8,7.9-6v-25.2h33.1c1.8,0,4.8-1.7,4.8-6.7C190.1,126.5,187,124.7,185.3,124.7z"/>
		<path class="st0" d="M144.2,107.3c-0.9-2.3-3.1-3.7-5.3-3.4c-1,0.1-7.5,2.3-12.5,1.8c-4.8-0.5-6.9-2.2-6.9-8.3v-7.6
			c0-2.2,1.6-4,3.7-4h15.5c1.6,0,4.2-1.6,4.2-6s-2.7-5.9-4.2-5.9h-24.4c-4.8,0-8.7,4.5-8.7,9.9v13.9c0,7.3,2.1,19.2,21.2,20.1
			c8.9,0.4,15-2.7,15-2.7C144.5,114.1,145.6,111.1,144.2,107.3z"/>
		<path class="st0" d="M183.6,107.3c-0.9-2.3-3.1-3.7-5.3-3.4c-1,0.1-7.5,2.3-12.4,1.8c-4.8-0.5-6.9-2.2-6.9-8.3v-7.6
			c0-2.2,1.6-4,3.7-4h15.5c1.6,0,4.2-1.6,4.2-6s-2.7-5.9-4.2-5.9h-24.4c-4.8,0-8.8,4.5-8.8,9.9v13.9c0,7.3,2.1,19.2,21.2,20.1
			c8.9,0.4,15-2.7,15-2.7C183.9,114.1,185,111.1,183.6,107.3z"/>
		<path class="st0" d="M369.7,71.4c-5.8,0-7.9,3.8-7.9,6v85.9c0,2.2,1.9,6,7.8,6c5.7,0,7.9-3.8,7.9-6V77.4
			C377.5,75.2,375.5,71.4,369.7,71.4z"/>
		<path class="st0" d="M342,74h-32.6c-5.5,0-9.9,5.1-9.9,11.3v41.4c0,6.2,4.4,11.3,9.9,11.3H342c5.5,0,9.9-5.1,9.9-11.3V85.2
			C351.9,79,347.5,74,342,74z M336.2,119.8c0,2.5-1.9,4.6-4.2,4.6h-12.6c-2.3,0-4.2-2-4.2-4.6V87.4H332c2.3,0,4.2,2,4.2,4.6V119.8z"
			/>
		<path class="st0" d="M80.2,71.4c-5.8,0-7.9,3.8-7.9,6v85.9c0,2.2,1.9,6,7.8,6c5.7,0,7.9-3.8,7.9-6V77.4C88,75.2,86,71.4,80.2,71.4
			z"/>
		<path class="st0" d="M285.4,98.7h-6.6V77.3c0-2.2-1.9-6-7.8-6c-5.7,0-7.9,3.8-7.9,6v85.9c0,2.2,1.9,6,7.8,6c5.7,0,7.9-3.8,7.9-6
			v-51.1h6.6c1.8,0,3.3-1.5,3.3-3.3V102C288.7,100.2,287.2,98.7,285.4,98.7z"/>
		<path class="st0" d="M62.7,115.1c-0.5,0.1-3.6,0.6-7.8,1.1c1.1-3,4.6-14.3,4.6-27.5v-3.6c0-6.2-4.4-11.2-9.8-11.2H12.5
			c-1.8,0-4.8,1.6-4.8,6.6c0,4.9,3,6.7,4.8,6.7h31.4V90c0,0-0.7,15.5-4.8,27H4.8C3,117,0,118.7,0,123.7c0,4.9,3,6.8,4.8,6.8h21.4
			v28.6c0,2.2,1.9,6,7.8,6c5.7,0,7.9-3.8,7.9-6v-28.6c14.1-0.2,23.8-2.8,23.8-2.8c2.8-1,4-5.1,2.5-9.1
			C67.4,116.3,65,114.8,62.7,115.1z"/>
		<path class="st0" d="M210.6,97.9c-4.8,0-9.7,3.9-9.7,9V129c0,5.1,5.1,9,9.9,9h16.8c16.7,0,26.8-2.8,26.8-2.8c2.8-1,4-5.1,2.5-9.1
			c-0.9-2.4-3.2-3.9-5.5-3.5c-1,0.1-8.5,1.9-19.1,1.9h-15.9v-13.2h27c5.5,0,9.9-5.1,9.9-11.3V85.2c0-6.2-4.4-11.3-9.9-11.3h-36.8
			c-1.8,0-4.8,1.7-4.8,6.7c0,4.9,3,6.8,4.8,6.8h31.1v5.9c0,2.9-1.2,4.6-4.2,4.6L210.6,97.9z"/>
	</g>
	<g>
		<path class="st0" d="M480.9,88.8h-8.4c2.6,3,4.1,6.7,4.1,10.6c0,7.7-5.5,15.1-14,17.5v7.2h3.2c13,0,18.4-2.1,21.2-3.8V73.1h11.5
			v17.7h13.1v11.6h-13.1v38H487v-11.1c-1,2-9.8,4.3-22.3,4.3h-38.4v-9.5H450V117c-8.6-2.5-14.1-9.8-14.1-17.5c0-4,1.4-7.7,4.1-10.6
			h-8.4v-8.5h18.7v-8.2h12v8.2H481v8.4H480.9z M446.2,158.5v-18.1H458v15.1h42.4v9.6h-47.7C448.8,165.1,446.2,162.5,446.2,158.5z
			 M447.2,99.5c0,4,3.4,8.2,8.9,8.2c5.6,0,8.9-4.2,8.9-8.2s-3.4-8.2-8.9-8.2S447.2,95.5,447.2,99.5z"/>
		<path class="st0" d="M549.8,85.8h-30.7v-9.6h40.8c3.7,0,4,2.3,4,5.2c0,1.1,0,2.1-0.1,3.2h14.5V73.1h11.5v48.1h-11.5v-8.7h-18.5
			v-9.9h18.5v-8.1h-16.4c-5.9,18.4-24.5,26.1-43.6,27.7l-1.2-9.6c18.2-2.3,32.3-12,34.5-24.1C551.7,87.6,551.6,85.8,549.8,85.8z
			 M541.6,146.8c0-12.2,10.3-21.5,23-21.5s23.1,9.3,23.1,21.5s-10.4,21.4-23.1,21.4C551.8,168.2,541.6,159,541.6,146.8z
			 M552.7,146.8c0,5.9,5.2,10.6,11.8,10.6s11.9-4.7,11.9-10.6c0-5.9-5.3-10.8-11.9-10.8C557.9,136,552.7,140.8,552.7,146.8z"/>
		<path class="st0" d="M641.2,132.2H611c-4,0-6.5-2.6-6.5-6.6V78.3h36.7v9.6h-25.5v12.7h21.4v9.3h-21.4v12.7h25.5V132.2z
			 M649.5,110.7h-9.4v-11h9.4V74.2h11V159h-11V110.7z M665.7,162V73.1h11V162H665.7z"/>
		<path class="st0" d="M686.3,139.8h80.1v9.6h-80.1V139.8z M700.3,102.1h40.6c0.1-1.8,0.1-3.6,0.1-5.3v-11h-41.7v-9.6h53.2v20.6
			c0,14-2.4,27.1-3.7,28.6H738c0.7-1.7,1.6-7.4,2.2-13.9h-39.9V102.1z"/>
	</g>
</g>
</svg>
